<svg width="25" height="24" viewBox="0 0 25 24" fill="none" xmlns="http://www.w3.org/2000/svg">
<path d="M12.75 2C7.227 2 2.75 6.477 2.75 12C2.75 17.523 7.227 22 12.75 22C18.273 22 22.75 17.523 22.75 12C22.75 6.477 18.273 2 12.75 2Z" stroke="#9F9F9F" stroke-width="1.5" stroke-linecap="round" stroke-linejoin="round"/>
<path d="M5.021 18.346C5.021 18.346 7.25 15.5 12.75 15.5C18.25 15.5 20.48 18.346 20.48 18.346M12.75 12C13.5456 12 14.3087 11.6839 14.8713 11.1213C15.4339 10.5587 15.75 9.79565 15.75 9C15.75 8.20435 15.4339 7.44129 14.8713 6.87868C14.3087 6.31607 13.5456 6 12.75 6C11.9543 6 11.1913 6.31607 10.6287 6.87868C10.0661 7.44129 9.75 8.20435 9.75 9C9.75 9.79565 10.0661 10.5587 10.6287 11.1213C11.1913 11.6839 11.9543 12 12.75 12V12Z" stroke="#9F9F9F" stroke-width="1.5" stroke-linecap="round" stroke-linejoin="round"/>
</svg>
