<svg width="19" height="11" viewBox="0 0 19 11" fill="none" xmlns="http://www.w3.org/2000/svg">
<path d="M13.7071 0.292893C13.3166 -0.0976311 12.6834 -0.0976311 12.2929 0.292893C11.9024 0.683417 11.9024 1.31658 12.2929 1.70711L13 1L13.7071 0.292893ZM16.7929 6.20711C17.1834 6.59763 17.8166 6.59763 18.2071 6.20711C18.5976 5.81658 18.5976 5.18342 18.2071 4.79289L17.5 5.5L16.7929 6.20711ZM18.2071 6.20711C18.5976 5.81658 18.5976 5.18342 18.2071 4.79289C17.8166 4.40237 17.1834 4.40237 16.7929 4.79289L17.5 5.5L18.2071 6.20711ZM12.2929 9.29289C11.9024 9.68342 11.9024 10.3166 12.2929 10.7071C12.6834 11.0976 13.3166 11.0976 13.7071 10.7071L13 10L12.2929 9.29289ZM17.5 6.5C18.0523 6.5 18.5 6.05228 18.5 5.5C18.5 4.94772 18.0523 4.5 17.5 4.5V5.5V6.5ZM1.5 4.5C0.947715 4.5 0.5 4.94772 0.5 5.5C0.5 6.05228 0.947715 6.5 1.5 6.5V5.5V4.5ZM13 1L12.2929 1.70711L16.7929 6.20711L17.5 5.5L18.2071 4.79289L13.7071 0.292893L13 1ZM17.5 5.5L16.7929 4.79289L12.2929 9.29289L13 10L13.7071 10.7071L18.2071 6.20711L17.5 5.5ZM17.5 5.5V4.5H1.5V5.5V6.5H17.5V5.5Z" fill="white"/>
</svg>
