<svg width="17" height="16" viewBox="0 0 17 16" fill="none" xmlns="http://www.w3.org/2000/svg">
<path d="M11.1668 7.99998C11.1671 8.15575 11.1128 8.30671 11.0134 8.42665L7.6801 12.4266C7.56694 12.5628 7.40434 12.6484 7.22805 12.6647C7.05177 12.6809 6.87625 12.6265 6.7401 12.5133C6.60396 12.4002 6.51834 12.2375 6.50209 12.0613C6.48584 11.885 6.54028 11.7095 6.65344 11.5733L9.6401 7.99998L6.7601 4.42665C6.70473 4.35845 6.66337 4.27999 6.63842 4.19576C6.61346 4.11154 6.6054 4.02321 6.61469 3.93586C6.62399 3.84851 6.65045 3.76385 6.69257 3.68676C6.73468 3.60967 6.79162 3.54166 6.8601 3.48665C6.92865 3.42559 7.00907 3.37935 7.09632 3.35083C7.18357 3.3223 7.27577 3.31209 7.36714 3.32086C7.45852 3.32962 7.5471 3.35716 7.62734 3.40174C7.70757 3.44633 7.77774 3.50701 7.83344 3.57998L11.0534 7.57998C11.1371 7.70337 11.177 7.85125 11.1668 7.99998Z" fill="#6440FE"/>
</svg>
