<svg width="18" height="20" viewBox="0 0 18 20" fill="none" xmlns="http://www.w3.org/2000/svg">
<path d="M4.75 10H13.25M4.75 13.5H13.25" stroke="#AFAFAF"/>
<path d="M4.75 2.5V3.5C4.75 4.05228 5.19772 4.5 5.75 4.5H11.75C12.3023 4.5 12.75 4.05228 12.75 3.5V2.5" stroke="#AFAFAF"/>
<path d="M0.75 19.5V2.5H16.75V19.5H0.75Z" stroke="#AFAFAF"/>
<mask id="path-4-outside-1_148_2238" maskUnits="userSpaceOnUse" x="6.75" y="0" width="4" height="3" fill="black">
<rect fill="white" x="6.75" width="4" height="3"/>
<path d="M9.75 2C9.75 1.73478 9.64464 1.48043 9.45711 1.29289C9.26957 1.10536 9.01522 1 8.75 1C8.48478 1 8.23043 1.10536 8.04289 1.29289C7.85536 1.48043 7.75 1.73478 7.75 2L8.75 2H9.75Z"/>
</mask>
<path d="M9.75 2C9.75 1.73478 9.64464 1.48043 9.45711 1.29289C9.26957 1.10536 9.01522 1 8.75 1C8.48478 1 8.23043 1.10536 8.04289 1.29289C7.85536 1.48043 7.75 1.73478 7.75 2L8.75 2H9.75Z" stroke="#AFAFAF" stroke-width="2" mask="url(#path-4-outside-1_148_2238)"/>
</svg>
