<svg width="25" height="24" viewBox="0 0 25 24" fill="none" xmlns="http://www.w3.org/2000/svg">
<path d="M15.25 21V13C15.25 12.7348 15.1446 12.4804 14.9571 12.2929C14.7696 12.1054 14.5152 12 14.25 12H10.25C9.98478 12 9.73043 12.1054 9.54289 12.2929C9.35536 12.4804 9.25 12.7348 9.25 13V21" stroke="black" stroke-width="2" stroke-linecap="round" stroke-linejoin="round"/>
<path d="M3.25 9.99999C3.24993 9.70906 3.31333 9.42161 3.43579 9.15771C3.55824 8.8938 3.7368 8.65979 3.959 8.47199L10.959 2.47199C11.32 2.1669 11.7774 1.99951 12.25 1.99951C12.7226 1.99951 13.18 2.1669 13.541 2.47199L20.541 8.47199C20.7632 8.65979 20.9418 8.8938 21.0642 9.15771C21.1867 9.42161 21.2501 9.70906 21.25 9.99999V19C21.25 19.5304 21.0393 20.0391 20.6642 20.4142C20.2891 20.7893 19.7804 21 19.25 21H5.25C4.71957 21 4.21086 20.7893 3.83579 20.4142C3.46071 20.0391 3.25 19.5304 3.25 19V9.99999Z" stroke="black" stroke-width="2" stroke-linecap="round" stroke-linejoin="round"/>
</svg>
