<svg width="21" height="21" viewBox="0 0 21 21" fill="none" xmlns="http://www.w3.org/2000/svg">
<path d="M19.619 17.7844L15.9276 8.84297C15.8594 8.67785 15.7438 8.53667 15.5953 8.43734C15.4468 8.33801 15.2722 8.28498 15.0935 8.28498C14.9149 8.28498 14.7403 8.33801 14.5918 8.43734C14.4433 8.53667 14.3277 8.67785 14.2595 8.84297L10.5681 17.7844C10.5222 17.894 10.4984 18.0117 10.4981 18.1305C10.4978 18.2494 10.521 18.3672 10.5663 18.477C10.6117 18.5869 10.6783 18.6868 10.7624 18.7708C10.8464 18.8549 10.9462 18.9215 11.0561 18.9669C11.166 19.0122 11.2837 19.0354 11.4026 19.0352C11.5215 19.0349 11.6391 19.0111 11.7488 18.9652C11.8584 18.9193 11.958 18.8522 12.0416 18.7677C12.1252 18.6833 12.1914 18.5831 12.2362 18.473L12.988 16.6523H17.1991L17.9509 18.473C18.0191 18.6382 18.1347 18.7795 18.2832 18.8788C18.4318 18.9782 18.6065 19.0313 18.7852 19.0312C18.9334 19.0312 19.0794 18.9945 19.2101 18.9246C19.3409 18.8547 19.4524 18.7536 19.5348 18.6303C19.6172 18.5071 19.6679 18.3654 19.6826 18.2178C19.6972 18.0703 19.6752 17.9214 19.6186 17.7844H19.619ZM13.7333 14.8477L15.0938 11.5521L16.4542 14.8477H13.7333ZM10.9856 14.0651C11.1258 13.8714 11.1834 13.6301 11.1458 13.394C11.1082 13.1579 10.9785 12.9464 10.7851 12.8059C10.7769 12.7997 10.1698 12.3494 9.2884 11.3814C10.9147 9.17971 11.8359 6.67488 12.2116 5.49609H13.5352C13.7745 5.49609 14.004 5.40103 14.1732 5.2318C14.3424 5.06258 14.4375 4.83307 14.4375 4.59375C14.4375 4.35443 14.3424 4.12492 14.1732 3.9557C14.004 3.78647 13.7745 3.69141 13.5352 3.69141H8.77734V2.87109C8.77734 2.63178 8.68228 2.40226 8.51305 2.23304C8.34383 2.06382 8.11432 1.96875 7.875 1.96875C7.63568 1.96875 7.40617 2.06382 7.23695 2.23304C7.06772 2.40226 6.97266 2.63178 6.97266 2.87109V3.69141H2.21484C1.97553 3.69141 1.74601 3.78647 1.57679 3.9557C1.40757 4.12492 1.3125 4.35443 1.3125 4.59375C1.3125 4.83307 1.40757 5.06258 1.57679 5.2318C1.74601 5.40103 1.97553 5.49609 2.21484 5.49609H10.3052C9.91471 6.60146 9.1957 8.34668 8.09895 9.94055C6.81064 8.23102 6.33199 7.12482 6.3283 7.1158C6.23399 6.89784 6.05755 6.72585 5.83725 6.63713C5.61695 6.54841 5.37055 6.55012 5.15151 6.64188C4.93246 6.73365 4.75842 6.90807 4.66713 7.12732C4.57585 7.34657 4.57468 7.59296 4.66389 7.81307C4.68768 7.86967 5.26066 9.21703 6.83197 11.2555C6.86971 11.3043 6.90703 11.3519 6.94436 11.3995C5.3349 13.2185 3.7558 14.3469 3.09504 14.7111C2.88493 14.8257 2.72895 15.019 2.66142 15.2486C2.59388 15.4783 2.62032 15.7253 2.73492 15.9354C2.84952 16.1455 3.04289 16.3015 3.2725 16.369C3.5021 16.4365 3.74913 16.4101 3.95924 16.2955C4.04783 16.2471 5.9526 15.1926 8.12766 12.785C9.05133 13.7726 9.68625 14.2386 9.72439 14.2656C9.82037 14.3354 9.92915 14.3855 10.0445 14.4131C10.1599 14.4407 10.2795 14.4453 10.3967 14.4267C10.5138 14.408 10.6261 14.3664 10.7272 14.3043C10.8283 14.2422 10.9161 14.1608 10.9856 14.0647V14.0651Z" fill="#686869"/>
</svg>
