<svg width="18" height="18" viewBox="0 0 18 18" fill="none" xmlns="http://www.w3.org/2000/svg">
<path d="M7.115 16.8631C7.721 17.2683 8.353 17.6386 9 18C9.6484 17.6434 10.2773 17.2641 10.885 16.8631C11.898 16.1892 12.8513 15.4584 13.738 14.6761C15.782 12.8651 18 10.2398 18 7.2927C18 6.33501 17.7672 5.38669 17.3149 4.5019C16.8626 3.61711 16.1997 2.81317 15.364 2.13598C14.5282 1.45879 13.5361 0.921616 12.4442 0.555124C11.3522 0.188631 10.1819 0 9 0C7.8181 0 6.64778 0.188631 5.55585 0.555124C4.46392 0.921616 3.47177 1.45879 2.63604 2.13598C1.80031 2.81317 1.13738 3.61711 0.685084 4.5019C0.232792 5.38669 -1.76116e-08 6.33501 0 7.2927C0 10.2398 2.218 12.8643 4.262 14.6761C5.14862 15.4586 6.10196 16.1889 7.115 16.8631ZM9 9.92617C8.13805 9.92617 7.3114 9.64872 6.7019 9.15485C6.09241 8.66097 5.75 7.99114 5.75 7.2927C5.75 6.59426 6.09241 5.92442 6.7019 5.43055C7.3114 4.93668 8.13805 4.65922 9 4.65922C9.86195 4.65922 10.6886 4.93668 11.2981 5.43055C11.9076 5.92442 12.25 6.59426 12.25 7.2927C12.25 7.99114 11.9076 8.66097 11.2981 9.15485C10.6886 9.64872 9.86195 9.92617 9 9.92617Z" fill="#686869"/>
</svg>
