<svg width="20" height="18" viewBox="0 0 20 18" fill="none" xmlns="http://www.w3.org/2000/svg">
<path fill-rule="evenodd" clip-rule="evenodd" d="M9.60396 0.894921C9.6358 1.16088 9.55531 1.42799 9.38019 1.6375C9.20506 1.84702 8.94965 1.98179 8.67011 2.0122C7.8104 2.0957 6.96995 2.30785 6.17983 2.64083C5.9239 2.75258 5.63179 2.76302 5.36777 2.66987C5.10374 2.57672 4.88943 2.3876 4.77197 2.14412C4.65451 1.90063 4.64353 1.62273 4.74145 1.37155C4.83936 1.12037 5.03815 0.916476 5.29408 0.804732C6.28769 0.380941 7.34628 0.11144 8.42957 0.00648578C8.70913 -0.0237991 8.98989 0.0527784 9.21011 0.219381C9.43034 0.385984 9.57201 0.628972 9.60396 0.894921ZM10.8831 0.913767C10.9048 0.782763 10.9534 0.657113 11.0262 0.543993C11.0989 0.430873 11.1944 0.332501 11.3071 0.254497C11.4199 0.176493 11.5477 0.120385 11.6832 0.0893787C11.8188 0.0583727 11.9594 0.0530761 12.0971 0.0737915C14.4077 0.421089 16.2923 1.37818 17.5898 2.94505C18.8774 4.50116 19.5 6.55668 19.5 8.96219C19.5 11.7163 18.6822 14.0115 16.9956 15.6174C15.3076 17.2219 12.8951 18 10.0001 18C6.56186 18 3.81406 16.8989 2.16142 14.6589C2.07434 14.5509 2.01112 14.4273 1.97555 14.2955C1.93998 14.1636 1.9328 14.0263 1.95443 13.8918C1.97607 13.7572 2.02608 13.6282 2.10146 13.5126C2.17684 13.3969 2.27603 13.2969 2.39306 13.2186C2.5101 13.1403 2.64257 13.0853 2.7825 13.057C2.92243 13.0287 3.06695 13.0275 3.20735 13.0537C3.34775 13.0799 3.48114 13.1328 3.59951 13.2092C3.71788 13.2857 3.81877 13.3841 3.89613 13.4986C5.04364 15.052 7.03728 15.9808 10.0001 15.9808C12.5046 15.9808 14.3114 15.3132 15.4943 14.1891C16.6772 13.0651 17.3762 11.3448 17.3762 8.96219C17.3762 6.8784 16.8399 5.30345 15.9216 4.19425C15.0118 3.09447 13.6436 2.35007 11.766 2.06739C11.4882 2.02566 11.2391 1.88072 11.0736 1.66441C10.908 1.4481 10.8395 1.17811 10.8831 0.913767ZM1.56149 7.9526C1.84294 7.9526 2.11286 8.05897 2.31187 8.2483C2.51088 8.43764 2.62269 8.69443 2.62269 8.96219C2.62457 9.83716 2.71607 10.6246 2.89718 11.3246C2.96361 11.5849 2.91863 11.8596 2.77216 12.0883C2.62568 12.317 2.38971 12.481 2.11614 12.5442C1.84257 12.6074 1.55383 12.5646 1.31342 12.4253C1.07301 12.2859 0.900634 12.0614 0.834213 11.8011C0.605611 10.8707 0.493524 9.91772 0.500289 8.96219C0.500289 8.69443 0.612093 8.43764 0.811107 8.2483C1.01012 8.05897 1.28004 7.9526 1.56149 7.9526ZM4.05884 4.21713C4.23165 4.00578 4.30913 3.73778 4.27424 3.47208C4.23935 3.20638 4.09494 2.96475 3.87278 2.80035C3.65062 2.63594 3.36892 2.56223 3.08964 2.59543C2.81035 2.62862 2.55637 2.76601 2.38356 2.97736C1.68674 3.843 1.18136 4.83391 0.897885 5.89035C0.831981 6.14652 0.874057 6.41705 1.01511 6.64408C1.15617 6.87112 1.385 7.03663 1.65267 7.10522C1.92035 7.1738 2.2056 7.14002 2.44743 7.0111C2.68926 6.88217 2.86846 6.66834 2.94671 6.41534C3.19149 5.54575 3.56928 4.81615 4.05884 4.21713ZM10.0016 4.38943C10.283 4.38943 10.5529 4.4958 10.7519 4.68514C10.951 4.87447 11.0628 5.13126 11.0628 5.39902V7.90279H13.6945C13.976 7.90279 14.2459 8.00916 14.4449 8.1985C14.6439 8.38783 14.7557 8.64462 14.7557 8.91238C14.7557 9.18014 14.6439 9.43693 14.4449 9.62627C14.2459 9.8156 13.976 9.92197 13.6945 9.92197H11.0613V12.4257C11.0613 12.6935 10.9495 12.9503 10.7505 13.1396C10.5515 13.329 10.2816 13.4353 10.0001 13.4353C9.7187 13.4353 9.44878 13.329 9.24976 13.1396C9.05075 12.9503 8.93895 12.6935 8.93895 12.4257V9.92197H6.30717C6.02572 9.92197 5.7558 9.8156 5.55679 9.62627C5.35778 9.43693 5.24597 9.18014 5.24597 8.91238C5.24597 8.64462 5.35778 8.38783 5.55679 8.1985C5.7558 8.00916 6.02572 7.90279 6.30717 7.90279H8.93895V5.39902C8.93895 5.13126 9.05075 4.87447 9.24976 4.68514C9.44878 4.4958 9.72011 4.38943 10.0016 4.38943Z" fill="#283891"/>
</svg>
