<svg width="13" height="13" viewBox="0 0 13 13" fill="none" xmlns="http://www.w3.org/2000/svg">
<path d="M9.83412 12.212C9.73796 12.2124 9.64312 12.1897 9.55753 12.1459L6.49098 10.5405L3.42443 12.1459C3.32485 12.1983 3.21258 12.2216 3.10038 12.2134C2.98818 12.2051 2.88055 12.1655 2.78973 12.0991C2.6989 12.0327 2.62853 11.9422 2.58661 11.8378C2.54468 11.7334 2.53289 11.6193 2.55256 11.5085L3.15385 8.1233L0.676555 5.71816C0.599265 5.64103 0.544436 5.54431 0.517953 5.43838C0.49147 5.33245 0.494333 5.22131 0.526234 5.11688C0.561084 5.01002 0.625191 4.91506 0.71128 4.84279C0.797368 4.77052 0.90199 4.72382 1.01327 4.70801L4.4406 4.20894L5.94982 1.12435C5.99906 1.02269 6.07594 0.936952 6.17164 0.876963C6.26735 0.816973 6.37803 0.785156 6.49098 0.785156C6.60394 0.785156 6.71461 0.816973 6.81032 0.876963C6.90602 0.936952 6.9829 1.02269 7.03214 1.12435L8.5594 4.20293L11.9867 4.70199C12.098 4.71781 12.2026 4.7645 12.2887 4.83678C12.3748 4.90905 12.4389 5.004 12.4738 5.11087C12.5057 5.21529 12.5085 5.32644 12.482 5.43237C12.4556 5.5383 12.4007 5.63502 12.3234 5.71215L9.84615 8.11729L10.4474 11.5025C10.4689 11.6153 10.4577 11.7318 10.415 11.8383C10.3724 11.9449 10.3002 12.037 10.2069 12.1038C10.098 12.1801 9.96694 12.2182 9.83412 12.212ZM6.49098 9.26575C6.58737 9.26331 6.68271 9.28611 6.76757 9.33189L9.03442 10.5345L8.60149 8.00305C8.58469 7.90639 8.5918 7.80709 8.6222 7.71381C8.65259 7.62053 8.70535 7.53611 8.77586 7.4679L10.5797 5.70614L8.05432 5.33334C7.96171 5.3147 7.8748 5.27449 7.80063 5.21599C7.72646 5.15749 7.66712 5.08234 7.62741 4.99662L6.49098 2.7418L5.35455 4.99662C5.31105 5.08303 5.24734 5.15766 5.16883 5.21419C5.09032 5.27072 4.99933 5.30746 4.90359 5.32132L2.37819 5.69411L4.18205 7.45588C4.25256 7.52408 4.30532 7.60851 4.33571 7.70179C4.36611 7.79507 4.37322 7.89436 4.35642 7.99102L3.92349 10.4924L6.19034 9.2898C6.28639 9.25409 6.39047 9.24576 6.49098 9.26575Z" fill="#8F90A6"/>
</svg>
