<svg width="27" height="24" viewBox="0 0 27 24" fill="none" xmlns="http://www.w3.org/2000/svg">
<path d="M13.3875 4C7.0875 4 10.125 11.3 10.125 11.3C10.8 12.3 11.7 12.1 11.7 12.8C11.7 13.4 10.9125 13.6 10.125 13.7C8.8875 13.7 7.7625 13.5 6.6375 15.3C5.9625 16.4 5.625 20 5.625 20H21.0375C21.0375 20 20.7 16.4 20.1375 15.3C19.0125 13.4 17.8875 13.7 16.65 13.6C15.8625 13.5 15.075 13.3 15.075 12.7C15.075 12.1 15.975 12.3 16.65 11.2C16.65 11.3 19.6875 4 13.3875 4V4Z" fill="#040404" fill-opacity="0.6"/>
</svg>
